<svg xmlns="http://www.w3.org/2000/svg" viewBox="0 0 110 110">
  <circle cx="55" cy="55" r="55" fill="#111111"/>
  <path fill="#FFFFFF" d="M85,54.15a29.84,29.84,0,0,0-1.13-7.37c0-.06,0-.1,0-.1a.86.86,0,0,0-.06-.22l-.07-.22c-.07-.21-.13-.41-.2-.61s-.11-.33-.14-.44l-.14-.41,0,0a30,30,0,0,0-9.72-13.38l0-.05L73,31h0l-.31-.22-.81-.58,0,0A29.87,29.87,0,0,0,56.06,25L56,25H54l-.06,0a29.83,29.83,0,0,0-15.72,5.1l0,0-.81.58-.32.23h0a4,4,0,0,0-.48.37l0,.05A30,30,0,0,0,26.8,44.75l0,0s-.07.19-.14.43-.13.38-.17.51-.11.32-.16.48-.06.2-.08.25a1,1,0,0,0-.06.23s0,0,0,.1A29.84,29.84,0,0,0,25,54.15c0,.29,0,.57,0,.85s0,.56,0,.85a29.84,29.84,0,0,0,1.13,7.37l0,.1a1,1,0,0,0,.06.23l.08.23.18.57c.06.16.11.33.15.44s.14.43.14.43l0,0a30,30,0,0,0,9.72,13.38l0,0s.2.16.49.37h0l.32.23c.44.32.81.59.81.58l0,0A29.87,29.87,0,0,0,53.94,85L54,85h2l.06,0a29.83,29.83,0,0,0,15.72-5.1l0,0s.37-.26.81-.58l.31-.22h0a4,4,0,0,0,.48-.37l0,0A30,30,0,0,0,83.2,65.25l0,0,.14-.41c0-.17.11-.36.16-.5s.12-.35.17-.53l.08-.24a.86.86,0,0,0,.06-.22s0,0,0-.1A29.84,29.84,0,0,0,85,55.85c0-.29,0-.57,0-.85S85,54.44,85,54.15Zm-11.29-20c.23.21.46.42.68.64.61.59,1.2,1.21,1.76,1.85l0,0c.55.64,1.08,1.31,1.57,2l0,.06c.49.69,1,1.4,1.39,2.13l0,.06c.43.74.83,1.49,1.19,2.27.13.29.27.58.4.88a1.72,1.72,0,0,1-.58,2.12l-3,1.42L69.52,51.3A14.91,14.91,0,0,0,66,44.82l4-7.27c.54-1,1.31-2.35,1.71-3.09A1.28,1.28,0,0,1,73.69,34.17ZM50,55a5,5,0,1,1,5,5A5,5,0,0,1,50,55Zm8.08-27.83,1,.13.14,0c.82.13,1.63.29,2.42.49h.08c.77.19,1.53.42,2.28.67l.16.06c.73.25,1.45.54,2.16.85l.14.07c.72.32,1.43.67,2.11,1.05l.86.5a1.78,1.78,0,0,1,.74,2.15l-1.63,3-4,7.3a14.92,14.92,0,0,0-6.67-3.17l-1.06-8.54c-.14-1.09-.33-2.6-.42-3.35S57.07,27.16,58.08,27.17ZM41.13,30.69c.4-.23.81-.45,1.22-.66q1-.53,2.1-1h0a27.86,27.86,0,0,1,7-1.83h0l.66-.09.35,0a1.8,1.8,0,0,1,1.93,1.26c.1.75.3,2.26.44,3.35L56,40.05c-.33,0-.64,0-1,0a14.94,14.94,0,0,0-6.3,1.4l-6.08-6.5-2.2-2.36C40,32.08,40.31,31.27,41.13,30.69ZM29.51,43.43c.23-.51.48-1,.73-1.49.35-.65.71-1.28,1.1-1.89l.08-.12a27.83,27.83,0,0,1,4.23-5.14c.3-.28.6-.56.92-.84.82-.6,1.76-.76,2.16-.34l2.15,2.27L47,42.34a15.17,15.17,0,0,0-5.08,5.36L33.06,46l-3.12-.6C29.33,45.27,29.15,44.4,29.51,43.43Zm-2,17.17c-.07-.38-.14-.75-.2-1.13l0-.17c-.1-.64-.17-1.29-.22-1.94l0-.39c0-.65-.08-1.31-.08-2,0-.47,0-.94,0-1.4,0-.3,0-.59.06-.89s0-.32,0-.47c0-.4.09-.8.14-1.19a.77.77,0,0,0,0-.15c.07-.44.14-.87.23-1.31l.07-.36.15-.63a1.7,1.7,0,0,1,1.72-1.3l3.28.61,8.32,1.55a14.5,14.5,0,0,0-1,7.33l-8.26,3.86L29,62C28.49,62.23,27.84,61.61,27.56,60.6Zm8.55,15.05L35.46,75l-.15-.16c-.55-.54-1.08-1.11-1.59-1.7l0,0c-.5-.59-1-1.19-1.42-1.81l0-.06a27.44,27.44,0,0,1-2.4-4c-.06-.11-.11-.22-.15-.31-.14-.29-.27-.58-.4-.87-.33-1-.17-2,.4-2.25l2.88-1.37,7.91-3.77A14.91,14.91,0,0,0,44,65.18l-3.92,7.1c-.53,1-1.32,2.39-1.76,3.17A1.43,1.43,0,0,1,36.11,75.65ZM52,82.83c-.35,0-.7-.08-1-.13h-.06c-.88-.13-1.75-.3-2.6-.51l-.05,0c-.4-.09-.79-.2-1.18-.32l-.12,0-1.11-.37-.17,0-1-.4-.19-.08-1-.44-.21-.1-1-.47L42,79.78q-.47-.24-.93-.51L40.57,79l-.09,0-.19-.12A1.73,1.73,0,0,1,40,76.6c.44-.8,1.23-2.25,1.75-3.22l3.73-6.84a14.92,14.92,0,0,0,6.67,3.17l1.09,8.79c.14,1.09.32,2.54.4,3.23S53,82.85,52,82.83Zm16.88-3.51c-.37.21-.75.42-1.13.61a27.9,27.9,0,0,1-6.35,2.33h0c-.74.17-1.5.32-2.27.43l-.28,0-1.1.13c-1.08,0-2-.51-2.12-1.24s-.29-2.25-.44-3.34L54,70c.33,0,.64,0,1,0a14.94,14.94,0,0,0,6.3-1.4l5.48,5.86,2.5,2.68A1.43,1.43,0,0,1,68.85,79.32ZM80.58,66.37c-.1.21-.19.43-.3.65l-.15.31A28,28,0,0,1,74,75.5l-.32.3-.4.34c-.73.56-1.65.67-2.07.23l-2.16-2.28L63,67.66a15.08,15.08,0,0,0,5.08-5.36L76.72,64l3.23.62C80.61,64.72,80.87,65.5,80.58,66.37Zm2.39-10c0,.21,0,.4,0,.6s0,.49,0,.73l-.09.79c0,.17,0,.34-.07.5,0,.31-.09.61-.15.91s-.07.47-.12.7v0c0,.21-.09.4-.14.6a1.86,1.86,0,0,1-1.86,1.44L77,62.05l-8.11-1.51a14.5,14.5,0,0,0,.95-7.33l7.64-3.57,3.14-1.47c.7-.33,1.47.15,1.74,1.07.07.35.14.7.2,1.06.12.72.21,1.44.28,2.18,0,.1,0,.2,0,.3.06.73.1,1.47.1,2.22C83,55.46,83,55.91,83,56.36ZM55,15a39.88,39.88,0,0,0-14.25,2.62c0-.1-.07-.2-.12-.3L33.55,4.1A5,5,0,0,0,26.8,2h0a5,5,0,0,0-2.05,6.76L31.81,22c.05.09.12.17.17.26A40,40,0,1,0,55,15Zm0,72A32,32,0,1,1,87,55,32,32,0,0,1,55,87Z"/>
</svg>
