<svg xmlns="http://www.w3.org/2000/svg" viewBox="0 0 144 144">
  <circle cx="72" cy="72" r="72" fill="red"/>
  <path d="M137.58,63.27s2.21-.72,2.06-1.47c-.13-.63-2.21-.08-4.66.35-3.89.68-39.61,8.38-39.61,8.38-.54.13-.73-.17-.79-.39-.26-2.15,2.81-7.95,3.13-11.02.01-.1.02-.2.02-.29,0-.01,0-.02,0-.04.01-1.15-.72-1.39-1.2-1.42-.98.02-2.72.28-5.01.71h0s-.06.01-.18.03c-.65.12-1.36.22-2.08.41-10.48,2.69-29.88,9.25-32.68,9.75-2.54.46-2.07-1.36-1.78-2.11.04-.1.09-.2.13-.3,0,0,0,0,0,0h0c.88-2.04,1.31-4.35,1.83-6.12,0,0,0,0,0,0,1.01-3.51-.58-3.5-.58-3.5-3.28-.27-59.78,29.4-50.84,27.09,8.93-2.31,29.9-6.99,29.9-6.99,0,0,0,0,0,0,.16-.03.77-.06.86.82,0,0-.16,2.08-.8,3.58-.64,1.5-1.63,3.67-1.76,5.33-.01.43.08,1.74,1.75,1.69.12,0,.24-.02.38-.03.03,0,.05,0,.08,0,0,0,11.62-3.39,15.46-5.03,3.84-1.64,30.16-11.72,30.16-11.72,0,0,1.68-.44,1.43,1.26-.04.2-.09.41-.15.63,0,0,0,.02,0,.02-.03.1-.05.18-.07.26-.88,3.23-2.78,7.74-2.27,9.5.08.22.36.65,1.23.53,1.09-.13,3.07-.58,5.7-1.28h0c26.7-10.63,26.87-10.33,50.37-18.63Z" fill="#fff"/>
</svg>
