<?xml version="1.0" encoding="UTF-8"?>
<svg id="Layer_1" data-name="Layer 1" xmlns="http://www.w3.org/2000/svg" viewBox="0 0 302.4 100.8">
  <polygon points="7.2 22.4 19.76 22.4 19.76 87.98 30.62 87.98 30.62 22.4 43.19 22.4 43.19 12.18 7.2 12.18 7.2 22.4"/>
  <path d="M76.3,36.35c-1.07-1.06-2.27-1.83-3.62-2.29-1.35-.46-2.7-.69-4.05-.69-2.49,0-4.52.55-6.12,1.65-1.6,1.1-2.96,2.5-4.1,4.21h-.21V12.18h-10.86v75.81h10.86v-36.31c0-2.41.39-4.26,1.17-5.54.78-1.28,2.2-1.92,4.26-1.92,1.7,0,3.02.57,3.94,1.7.92,1.14,1.38,2.7,1.38,4.68v37.37h10.86v-41.42c0-2.41-.32-4.45-.96-6.12-.64-1.67-1.49-3.03-2.55-4.1Z"/>
  <path d="M99.62,39.75v-5.75h-10.86v53.98h10.86v-32.05c0-2.2.35-4.05,1.06-5.54.71-1.49,1.63-2.7,2.77-3.62,1.06-.92,2.25-1.58,3.57-1.97,1.31-.39,2.54-.58,3.67-.58s2.24.21,3.3.64v-11.5c-3.12,0-5.75.57-7.88,1.7-2.13,1.14-4.29,2.7-6.49,4.68Z"/>
  <path d="M147.1,41.14c-1.28-2.34-3.11-4.22-5.48-5.64-2.38-1.42-5.27-2.13-8.68-2.13s-6.3.71-8.68,2.13c-2.38,1.42-4.21,3.3-5.48,5.64-.78,1.42-1.31,3.05-1.6,4.9-.28,1.85-.43,3.87-.43,6.07v17.78c0,2.2.14,4.23.43,6.07s.81,3.48,1.6,4.9c1.28,2.34,3.1,4.23,5.48,5.64,2.38,1.42,5.27,2.13,8.68,2.13s6.3-.71,8.68-2.13c2.38-1.42,4.21-3.3,5.48-5.64.78-1.42,1.31-3.05,1.6-4.9.28-1.85.42-3.87.42-6.07v-17.78c0-2.2-.14-4.22-.42-6.07-.29-1.84-.82-3.48-1.6-4.9ZM138.26,71.59c0,2.06-.48,3.6-1.44,4.63-.96,1.03-2.25,1.54-3.88,1.54s-2.93-.51-3.89-1.54c-.96-1.03-1.44-2.57-1.44-4.63v-21.19c0-2.06.48-3.6,1.44-4.63.96-1.03,2.25-1.54,3.89-1.54s2.93.52,3.88,1.54c.96,1.03,1.44,2.57,1.44,4.63v21.19Z"/>
  <path d="M189.69,12.18h-10.86v21.83h-10.86V12.18h-10.86v21.83h-5.43v8.52h5.43v32.79c0,1.42.23,2.89.69,4.42.46,1.53,1.19,2.89,2.18,4.1.99,1.21,2.32,2.2,3.99,2.98,1.67.78,3.74,1.17,6.23,1.17h4.47v-10.22c-1.21,0-2.22-.03-3.04-.11-.82-.07-1.51-.28-2.08-.64-.57-.35-.98-.89-1.22-1.6-.25-.71-.37-1.7-.37-2.98v-29.92h10.86v32.79c0,1.42.23,2.89.69,4.42.46,1.53,1.19,2.89,2.18,4.1.99,1.21,2.32,2.2,3.99,2.98,1.67.78,3.74,1.17,6.23,1.17h4.47v-10.22c-1.21,0-2.22-.03-3.04-.11-.82-.07-1.51-.28-2.08-.64-.57-.35-.98-.89-1.22-1.6-.25-.71-.37-1.7-.37-2.98v-29.92h6.71v-8.52h-6.71V12.18Z"/>
  <path d="M210.77,72.76V12.18h-10.86v61.33c0,3.19.37,5.77,1.12,7.72.75,1.96,1.83,3.46,3.25,4.53,1.42,1.14,3.12,1.9,5.11,2.29,1.99.39,4.22.58,6.71.58v-10.22c-2.06-.21-3.46-.69-4.21-1.44s-1.12-2.15-1.12-4.21Z"/>
  <rect x="220.35" y="34" width="10.86" height="53.98"/>
  <rect x="220.35" y="12.18" width="10.86" height="10.86"/>
  <path d="M259.96,57.11l-6.39-2.56c-2.06-.78-3.34-1.65-3.83-2.61-.5-.96-.75-1.93-.75-2.93,0-1.42.46-2.68,1.38-3.78.92-1.1,2.24-1.65,3.94-1.65,1.42,0,2.68.46,3.78,1.38,1.1.92,1.68,2.31,1.76,4.15h10.22c0-2.2-.39-4.27-1.17-6.23-.78-1.95-1.85-3.64-3.19-5.06-1.35-1.42-2.97-2.52-4.85-3.3s-3.92-1.17-6.12-1.17-4.26.37-6.18,1.12c-1.92.75-3.59,1.83-5.01,3.25-1.49,1.42-2.66,3.11-3.51,5.06-.85,1.95-1.28,4.07-1.28,6.34,0,3.62.98,6.69,2.93,9.21,1.95,2.52,4.63,4.42,8.04,5.7l5.22,1.92c2.06.78,3.48,1.7,4.26,2.77.78,1.07,1.17,2.34,1.17,3.83,0,1.85-.62,3.28-1.86,4.31-1.24,1.03-2.65,1.54-4.21,1.54-2.06,0-3.5-.64-4.31-1.91-.82-1.28-1.33-2.66-1.54-4.15h-10.22c.07,2.7.57,5.06,1.49,7.08.92,2.02,2.13,3.71,3.62,5.06,2.98,2.77,6.67,4.15,11.07,4.15,2.34,0,4.51-.42,6.5-1.28,1.99-.85,3.69-2.02,5.11-3.51,1.42-1.49,2.54-3.21,3.35-5.16.82-1.95,1.22-4.06,1.22-6.34,0-3.19-.76-6.14-2.29-8.84-1.53-2.7-4.31-4.83-8.36-6.39Z"/>
  <path d="M295.2,42.52v-8.52h-6.71V12.18h-10.86v21.83h-5.43v8.52h5.43v32.79c0,1.42.23,2.89.69,4.42.46,1.53,1.19,2.89,2.18,4.1.99,1.21,2.32,2.2,3.99,2.98,1.67.78,3.74,1.17,6.23,1.17h4.47v-10.22c-1.21,0-2.22-.03-3.04-.11-.82-.07-1.51-.28-2.08-.64-.57-.35-.98-.89-1.22-1.6-.25-.71-.37-1.7-.37-2.98v-29.92h6.71Z"/>
  <path d="M147.83,16.56s1.38-.45,1.28-.92c-.08-.39-1.38-.05-2.91.22-2.43.42-24.7,5.22-24.7,5.22-.34.08-.46-.1-.5-.24-.16-1.34,1.75-4.96,1.95-6.87,0-.06.01-.12.01-.18,0,0,0-.01,0-.02,0-.72-.45-.87-.75-.89-.61.01-1.69.17-3.12.44h0s-.04,0-.11.02c-.41.08-.85.14-1.3.25-6.53,1.68-18.63,5.77-20.38,6.08-1.58.28-1.29-.85-1.11-1.31.03-.06.05-.13.08-.19,0,0,0,0,0,0h0c.55-1.27.82-2.71,1.14-3.81,0,0,0,0,0,0,.63-2.19-.36-2.18-.36-2.18-2.04-.17-37.27,18.33-31.7,16.89,5.57-1.44,18.64-4.36,18.64-4.36,0,0,0,0,0,0,.1-.02.48-.04.54.51,0,0-.1,1.3-.5,2.23-.4.94-1.02,2.29-1.1,3.32,0,.27.05,1.09,1.09,1.05.08,0,.15-.01.23-.02.02,0,.03,0,.05,0,0,0,7.24-2.11,9.64-3.13s18.81-7.31,18.81-7.31c0,0,1.05-.28.89.78-.03.13-.06.26-.09.39,0,0,0,0,0,.02-.02.06-.03.11-.04.16-.55,2.01-1.74,4.82-1.42,5.92.05.14.22.41.77.33.68-.08,1.91-.36,3.55-.79h0c16.65-6.63,16.75-6.44,31.4-11.61Z"/>
</svg>