<?xml version="1.0" encoding="UTF-8"?>
<svg id="Layer_1" data-name="Layer 1" xmlns="http://www.w3.org/2000/svg" viewBox="0 0 302.4 302.4">
  <path d="M291.94,132.47s4.75-1.55,4.42-3.16c-.28-1.35-4.74-.16-10,.76-8.36,1.46-85.02,17.98-85.02,17.98-1.17.27-1.58-.35-1.71-.84-.55-4.6,6.02-17.07,6.72-23.66.02-.22.04-.43.05-.62,0-.03,0-.05,0-.08.03-2.47-1.54-2.98-2.58-3.05-2.1.05-5.83.6-10.75,1.52h0s-.13.02-.38.07c-1.4.26-2.91.47-4.47.87-22.49,5.77-64.13,19.85-70.15,20.93-5.45.98-4.45-2.92-3.83-4.52.09-.22.19-.43.28-.65,0,0,0-.01,0-.01h0c1.9-4.38,2.82-9.33,3.92-13.13,0,0,0,0,0,0,2.18-7.52-1.25-7.51-1.25-7.51-7.03-.57-128.3,63.1-109.12,58.15,19.17-4.95,64.17-15.01,64.17-15.01,0,0,0,0,0,0,.35-.06,1.66-.14,1.85,1.75,0,0-.35,4.47-1.72,7.69-1.37,3.22-3.5,7.87-3.79,11.44-.03.92.18,3.74,3.75,3.63.26-.02.52-.04.81-.07.06,0,.11,0,.17-.02,0,0,24.93-7.27,33.18-10.79,8.25-3.51,64.74-25.15,64.74-25.15,0,0,3.62-.95,3.08,2.7-.09.43-.2.88-.32,1.34,0,.02,0,.03-.01.05-.07.21-.11.39-.15.56-1.88,6.93-5.97,16.61-4.88,20.4.17.47.76,1.4,2.65,1.13,2.35-.28,6.59-1.25,12.23-2.74h0c57.31-22.81,57.66-22.16,108.1-39.97Z"/>
</svg>